<svg xmlns="http://www.w3.org/2000/svg" aria-hidden="true" style="display:none">
  <defs>
    <!-- Brand gradient: #00D4FF → #7A5CFF -->
    <linearGradient id="brand-ig" x1="0%" y1="0%" x2="100%" y2="100%">
      <stop offset="0%"   stop-color="#00D4FF"/>
      <stop offset="100%" stop-color="#7A5CFF"/>
    </linearGradient>
    <!-- Cyan glow filter -->
    <filter id="brand-glow" x="-20%" y="-20%" width="140%" height="140%">
      <feGaussianBlur stdDeviation="1.5" result="blur"/>
      <feMerge><feMergeNode in="blur"/><feMergeNode in="SourceGraphic"/></feMerge>
    </filter>
  </defs>

  <!-- ── Navigation ─────────────────────────────────────────────── -->

  <symbol id="icon-home" viewBox="0 0 24 24" fill="none">
    <path d="M3 12L12 3l9 9v8a1 1 0 0 1-1 1H15v-5H9v5H4a1 1 0 0 1-1-1v-8z"
          stroke="url(#brand-ig)" stroke-width="1.5" stroke-linecap="round" stroke-linejoin="round"/>
  </symbol>

  <symbol id="icon-folder" viewBox="0 0 24 24" fill="none">
    <path d="M3 7a2 2 0 0 1 2-2h4l2 2h8a2 2 0 0 1 2 2v9a2 2 0 0 1-2 2H5a2 2 0 0 1-2-2V7z"
          stroke="url(#brand-ig)" stroke-width="1.5" stroke-linejoin="round"/>
  </symbol>

  <symbol id="icon-folder-open" viewBox="0 0 24 24" fill="none">
    <path d="M3 7a2 2 0 0 1 2-2h4l2 2h8a2 2 0 0 1 2 2v1H3V7z"
          stroke="url(#brand-ig)" stroke-width="1.5" stroke-linejoin="round"/>
    <path d="M3 10h18l-2 9H5l-2-9z"
          stroke="url(#brand-ig)" stroke-width="1.5" stroke-linejoin="round"/>
  </symbol>

  <symbol id="icon-book" viewBox="0 0 24 24" fill="none">
    <path d="M4 19.5A2.5 2.5 0 0 1 6.5 17H20" stroke="url(#brand-ig)" stroke-width="1.5" stroke-linecap="round"/>
    <path d="M6.5 2H20v20H6.5A2.5 2.5 0 0 1 4 19.5v-15A2.5 2.5 0 0 1 6.5 2z"
          stroke="url(#brand-ig)" stroke-width="1.5" stroke-linejoin="round"/>
    <line x1="9" y1="7" x2="15" y2="7" stroke="#00D4FF" stroke-width="1.5" stroke-linecap="round"/>
    <line x1="9" y1="11" x2="13" y2="11" stroke="#7A5CFF" stroke-width="1.5" stroke-linecap="round"/>
  </symbol>

  <symbol id="icon-journal" viewBox="0 0 24 24" fill="none">
    <rect x="4" y="2" width="16" height="20" rx="2" stroke="url(#brand-ig)" stroke-width="1.5"/>
    <line x1="8" y1="6"  x2="16" y2="6"  stroke="#00D4FF" stroke-width="1.5" stroke-linecap="round"/>
    <line x1="8" y1="10" x2="16" y2="10" stroke="#00D4FF" stroke-width="1.5" stroke-linecap="round"/>
    <line x1="8" y1="14" x2="12" y2="14" stroke="#7A5CFF" stroke-width="1.5" stroke-linecap="round"/>
    <line x1="7" y1="2"  x2="7"  y2="22" stroke="url(#brand-ig)" stroke-width="1.5"/>
  </symbol>

  <symbol id="icon-flask" viewBox="0 0 24 24" fill="none">
    <path d="M9 3h6M9 3v7l-5 9a1 1 0 0 0 .9 1.5h14.2a1 1 0 0 0 .9-1.5L15 10V3"
          stroke="url(#brand-ig)" stroke-width="1.5" stroke-linecap="round" stroke-linejoin="round"/>
    <circle cx="10" cy="17" r="1" fill="#00D4FF"/>
    <circle cx="14" cy="15" r="1.5" fill="url(#brand-ig)" opacity=".7"/>
  </symbol>

  <symbol id="icon-hypothesis" viewBox="0 0 24 24" fill="none">
    <circle cx="12" cy="12" r="9" stroke="url(#brand-ig)" stroke-width="1.5"/>
    <path d="M9.5 9a2.5 2.5 0 0 1 5 0c0 1.5-1.5 2-2.5 3" stroke="#00D4FF" stroke-width="1.5" stroke-linecap="round"/>
    <circle cx="12" cy="17" r="1" fill="#7A5CFF"/>
  </symbol>

  <symbol id="icon-flag" viewBox="0 0 24 24" fill="none">
    <path d="M4 15s1-1 4-1 5 2 8 2 4-1 4-1V4s-1 1-4 1-5-2-8-2-4 1-4 1z"
          stroke="url(#brand-ig)" stroke-width="1.5" stroke-linecap="round" stroke-linejoin="round"/>
    <line x1="4" y1="22" x2="4" y2="15" stroke="url(#brand-ig)" stroke-width="1.5" stroke-linecap="round"/>
  </symbol>

  <symbol id="icon-bookmark" viewBox="0 0 24 24" fill="none">
    <path d="M19 21l-7-5-7 5V5a2 2 0 0 1 2-2h10a2 2 0 0 1 2 2v16z"
          stroke="url(#brand-ig)" stroke-width="1.5" stroke-linecap="round" stroke-linejoin="round"/>
    <line x1="9" y1="8" x2="15" y2="8" stroke="#00D4FF" stroke-width="1.5" stroke-linecap="round"/>
  </symbol>

  <symbol id="icon-file-text" viewBox="0 0 24 24" fill="none">
    <path d="M14 2H6a2 2 0 0 0-2 2v16a2 2 0 0 0 2 2h12a2 2 0 0 0 2-2V8l-6-6z"
          stroke="url(#brand-ig)" stroke-width="1.5" stroke-linejoin="round"/>
    <path d="M14 2v6h6" stroke="url(#brand-ig)" stroke-width="1.5" stroke-linejoin="round"/>
    <line x1="8" y1="13" x2="16" y2="13" stroke="#00D4FF" stroke-width="1.5" stroke-linecap="round"/>
    <line x1="8" y1="17" x2="12" y2="17" stroke="#7A5CFF" stroke-width="1.5" stroke-linecap="round"/>
  </symbol>

  <symbol id="icon-network" viewBox="0 0 24 24" fill="none">
    <circle cx="12" cy="5"  r="2.5" stroke="url(#brand-ig)" stroke-width="1.5"/>
    <circle cx="5"  cy="19" r="2.5" stroke="#7A5CFF"       stroke-width="1.5"/>
    <circle cx="19" cy="19" r="2.5" stroke="#00D4FF"       stroke-width="1.5"/>
    <line x1="12" y1="7.5"  x2="5"  y2="16.5" stroke="url(#brand-ig)" stroke-width="1.2" stroke-dasharray="3 2"/>
    <line x1="12" y1="7.5"  x2="19" y2="16.5" stroke="url(#brand-ig)" stroke-width="1.2" stroke-dasharray="3 2"/>
    <line x1="7.5" y1="19"  x2="16.5" y2="19" stroke="rgba(0,212,255,.4)" stroke-width="1" stroke-dasharray="3 2"/>
  </symbol>

  <symbol id="icon-brain" viewBox="0 0 24 24" fill="none">
    <path d="M9.5 2a4 4 0 0 1 4 3.5A4 4 0 0 1 17 9a4 4 0 0 1-3 3.87V20a2 2 0 0 1-4 0v-7.13A4 4 0 0 1 7 9a4 4 0 0 1 2.5-3.7V2z"
          stroke="url(#brand-ig)" stroke-width="1.5" stroke-linecap="round" stroke-linejoin="round"/>
    <path d="M9.5 9h5" stroke="#00D4FF" stroke-width="1.5" stroke-linecap="round"/>
    <circle cx="14.5" cy="6.5" r="1" fill="#7A5CFF"/>
  </symbol>

  <symbol id="icon-sparkle" viewBox="0 0 24 24" fill="none">
    <path d="M12 2l2 7h7l-5.5 4 2 7L12 16l-5.5 4 2-7L3 9h7l2-7z"
          stroke="url(#brand-ig)" stroke-width="1.5" stroke-linejoin="round"/>
  </symbol>

  <symbol id="icon-github" viewBox="0 0 24 24" fill="none">
    <path d="M9 19c-5 1.5-5-2.5-7-3m14 6v-3.87a3.37 3.37 0 0 0-.94-2.61c3.14-.35 6.44-1.54 6.44-7A5.44 5.44 0 0 0 20 4.77 5.07 5.07 0 0 0 19.91 1S18.73.65 16 2.48a13.38 13.38 0 0 0-7 0C6.27.65 5.09 1 5.09 1A5.07 5.07 0 0 0 5 4.77a5.44 5.44 0 0 0-1.5 3.78c0 5.42 3.3 6.61 6.44 7A3.37 3.37 0 0 0 9 18.13V22"
          stroke="url(#brand-ig)" stroke-width="1.5" stroke-linecap="round" stroke-linejoin="round"/>
  </symbol>

  <symbol id="icon-settings" viewBox="0 0 24 24" fill="none">
    <circle cx="12" cy="12" r="3" stroke="url(#brand-ig)" stroke-width="1.5"/>
    <path d="M19.4 15a1.65 1.65 0 0 0 .33 1.82l.06.06a2 2 0 0 1 0 2.83 2 2 0 0 1-2.83 0l-.06-.06a1.65 1.65 0 0 0-1.82-.33 1.65 1.65 0 0 0-1 1.51V21a2 2 0 0 1-2 2 2 2 0 0 1-2-2v-.09A1.65 1.65 0 0 0 9 19.4a1.65 1.65 0 0 0-1.82.33l-.06.06a2 2 0 0 1-2.83 0 2 2 0 0 1 0-2.83l.06-.06A1.65 1.65 0 0 0 4.68 15a1.65 1.65 0 0 0-1.51-1H3a2 2 0 0 1-2-2 2 2 0 0 1 2-2h.09A1.65 1.65 0 0 0 4.6 9a1.65 1.65 0 0 0-.33-1.82l-.06-.06a2 2 0 0 1 0-2.83 2 2 0 0 1 2.83 0l.06.06A1.65 1.65 0 0 0 9 4.68a1.65 1.65 0 0 0 1-1.51V3a2 2 0 0 1 2-2 2 2 0 0 1 2 2v.09a1.65 1.65 0 0 0 1 1.51 1.65 1.65 0 0 0 1.82-.33l.06-.06a2 2 0 0 1 2.83 0 2 2 0 0 1 0 2.83l-.06.06A1.65 1.65 0 0 0 19.4 9a1.65 1.65 0 0 0 1.51 1H21a2 2 0 0 1 2 2 2 2 0 0 1-2 2h-.09a1.65 1.65 0 0 0-1.51 1z"
          stroke="url(#brand-ig)" stroke-width="1.5" stroke-linecap="round"/>
  </symbol>

  <symbol id="icon-users" viewBox="0 0 24 24" fill="none">
    <path d="M17 21v-2a4 4 0 0 0-4-4H5a4 4 0 0 0-4 4v2" stroke="url(#brand-ig)" stroke-width="1.5" stroke-linecap="round"/>
    <circle cx="9" cy="7" r="4" stroke="url(#brand-ig)" stroke-width="1.5"/>
    <path d="M23 21v-2a4 4 0 0 0-3-3.87M16 3.13a4 4 0 0 1 0 7.75"
          stroke="#7A5CFF" stroke-width="1.5" stroke-linecap="round"/>
  </symbol>

  <symbol id="icon-user-plus" viewBox="0 0 24 24" fill="none">
    <path d="M16 21v-2a4 4 0 0 0-4-4H5a4 4 0 0 0-4 4v2" stroke="url(#brand-ig)" stroke-width="1.5" stroke-linecap="round"/>
    <circle cx="8.5" cy="7" r="4" stroke="url(#brand-ig)" stroke-width="1.5"/>
    <line x1="20" y1="8" x2="20" y2="14" stroke="#00D4FF" stroke-width="1.5" stroke-linecap="round"/>
    <line x1="17" y1="11" x2="23" y2="11" stroke="#00D4FF" stroke-width="1.5" stroke-linecap="round"/>
  </symbol>

  <!-- ── Actions ─────────────────────────────────────────────────── -->

  <symbol id="icon-search" viewBox="0 0 24 24" fill="none">
    <circle cx="10.5" cy="10.5" r="7" stroke="url(#brand-ig)" stroke-width="1.5"/>
    <line x1="21" y1="21" x2="15.8" y2="15.8" stroke="url(#brand-ig)" stroke-width="1.5" stroke-linecap="round"/>
  </symbol>

  <symbol id="icon-plus" viewBox="0 0 24 24" fill="none">
    <circle cx="12" cy="12" r="9" stroke="url(#brand-ig)" stroke-width="1.5"/>
    <line x1="12" y1="8" x2="12" y2="16" stroke="#00D4FF" stroke-width="1.5" stroke-linecap="round"/>
    <line x1="8"  y1="12" x2="16" y2="12" stroke="#00D4FF" stroke-width="1.5" stroke-linecap="round"/>
  </symbol>

  <symbol id="icon-plus-sm" viewBox="0 0 24 24" fill="none">
    <line x1="12" y1="5" x2="12" y2="19" stroke="url(#brand-ig)" stroke-width="2" stroke-linecap="round"/>
    <line x1="5"  y1="12" x2="19" y2="12" stroke="url(#brand-ig)" stroke-width="2" stroke-linecap="round"/>
  </symbol>

  <symbol id="icon-edit" viewBox="0 0 24 24" fill="none">
    <path d="M11 4H4a2 2 0 0 0-2 2v14a2 2 0 0 0 2 2h14a2 2 0 0 0 2-2v-7"
          stroke="url(#brand-ig)" stroke-width="1.5" stroke-linecap="round" stroke-linejoin="round"/>
    <path d="M18.5 2.5a2.121 2.121 0 0 1 3 3L12 15l-4 1 1-4 9.5-9.5z"
          stroke="url(#brand-ig)" stroke-width="1.5" stroke-linecap="round" stroke-linejoin="round"/>
  </symbol>

  <symbol id="icon-trash" viewBox="0 0 24 24" fill="none">
    <polyline points="3 6 5 6 21 6" stroke="#FF4D4F" stroke-width="1.5" stroke-linecap="round"/>
    <path d="M19 6l-1 14a2 2 0 0 1-2 2H8a2 2 0 0 1-2-2L5 6"
          stroke="#FF4D4F" stroke-width="1.5" stroke-linecap="round" stroke-linejoin="round"/>
    <path d="M10 11v6M14 11v6" stroke="#FF4D4F" stroke-width="1.5" stroke-linecap="round"/>
    <path d="M9 6V4a1 1 0 0 1 1-1h4a1 1 0 0 1 1 1v2" stroke="#FF4D4F" stroke-width="1.5" stroke-linejoin="round"/>
  </symbol>

  <symbol id="icon-check" viewBox="0 0 24 24" fill="none">
    <polyline points="20 6 9 17 4 12" stroke="#00E676" stroke-width="2" stroke-linecap="round" stroke-linejoin="round"/>
  </symbol>

  <symbol id="icon-check-circle" viewBox="0 0 24 24" fill="none">
    <circle cx="12" cy="12" r="9" stroke="#00E676" stroke-width="1.5"/>
    <polyline points="9 12 11 14 15 10" stroke="#00E676" stroke-width="1.5" stroke-linecap="round" stroke-linejoin="round"/>
  </symbol>

  <symbol id="icon-x" viewBox="0 0 24 24" fill="none">
    <line x1="18" y1="6"  x2="6"  y2="18" stroke="currentColor" stroke-width="2" stroke-linecap="round"/>
    <line x1="6"  y1="6"  x2="18" y2="18" stroke="currentColor" stroke-width="2" stroke-linecap="round"/>
  </symbol>

  <symbol id="icon-x-circle" viewBox="0 0 24 24" fill="none">
    <circle cx="12" cy="12" r="9" stroke="#FF4D4F" stroke-width="1.5"/>
    <line x1="15" y1="9"  x2="9"  y2="15" stroke="#FF4D4F" stroke-width="1.5" stroke-linecap="round"/>
    <line x1="9"  y1="9"  x2="15" y2="15" stroke="#FF4D4F" stroke-width="1.5" stroke-linecap="round"/>
  </symbol>

  <symbol id="icon-save" viewBox="0 0 24 24" fill="none">
    <path d="M19 21H5a2 2 0 0 1-2-2V5a2 2 0 0 1 2-2h11l5 5v11a2 2 0 0 1-2 2z"
          stroke="url(#brand-ig)" stroke-width="1.5" stroke-linejoin="round"/>
    <polyline points="17 21 17 13 7 13 7 21" stroke="url(#brand-ig)" stroke-width="1.5" stroke-linejoin="round"/>
    <polyline points="7 3 7 8 15 8" stroke="url(#brand-ig)" stroke-width="1.5" stroke-linejoin="round"/>
  </symbol>

  <symbol id="icon-copy" viewBox="0 0 24 24" fill="none">
    <rect x="9" y="9" width="13" height="13" rx="2" stroke="url(#brand-ig)" stroke-width="1.5" stroke-linejoin="round"/>
    <path d="M5 15H4a2 2 0 0 1-2-2V4a2 2 0 0 1 2-2h9a2 2 0 0 1 2 2v1"
          stroke="url(#brand-ig)" stroke-width="1.5" stroke-linecap="round" stroke-linejoin="round"/>
  </symbol>

  <symbol id="icon-download" viewBox="0 0 24 24" fill="none">
    <path d="M21 15v4a2 2 0 0 1-2 2H5a2 2 0 0 1-2-2v-4" stroke="url(#brand-ig)" stroke-width="1.5" stroke-linecap="round"/>
    <polyline points="7 10 12 15 17 10" stroke="url(#brand-ig)" stroke-width="1.5" stroke-linecap="round" stroke-linejoin="round"/>
    <line x1="12" y1="15" x2="12" y2="3" stroke="url(#brand-ig)" stroke-width="1.5" stroke-linecap="round"/>
  </symbol>

  <symbol id="icon-upload" viewBox="0 0 24 24" fill="none">
    <path d="M21 15v4a2 2 0 0 1-2 2H5a2 2 0 0 1-2-2v-4" stroke="url(#brand-ig)" stroke-width="1.5" stroke-linecap="round"/>
    <polyline points="17 8 12 3 7 8" stroke="url(#brand-ig)" stroke-width="1.5" stroke-linecap="round" stroke-linejoin="round"/>
    <line x1="12" y1="3" x2="12" y2="15" stroke="url(#brand-ig)" stroke-width="1.5" stroke-linecap="round"/>
  </symbol>

  <symbol id="icon-refresh" viewBox="0 0 24 24" fill="none">
    <polyline points="23 4 23 10 17 10" stroke="url(#brand-ig)" stroke-width="1.5" stroke-linecap="round" stroke-linejoin="round"/>
    <polyline points="1 20 1 14 7 14"   stroke="url(#brand-ig)" stroke-width="1.5" stroke-linecap="round" stroke-linejoin="round"/>
    <path d="M3.51 9a9 9 0 0 1 14.85-3.36L23 10M1 14l4.64 4.36A9 9 0 0 0 20.49 15"
          stroke="url(#brand-ig)" stroke-width="1.5" stroke-linecap="round" stroke-linejoin="round"/>
  </symbol>

  <symbol id="icon-eye" viewBox="0 0 24 24" fill="none">
    <path d="M1 12S5 4 12 4s11 8 11 8-4 8-11 8S1 12 1 12z" stroke="url(#brand-ig)" stroke-width="1.5" stroke-linejoin="round"/>
    <circle cx="12" cy="12" r="3" stroke="url(#brand-ig)" stroke-width="1.5"/>
  </symbol>

  <symbol id="icon-log-out" viewBox="0 0 24 24" fill="none">
    <path d="M9 21H5a2 2 0 0 1-2-2V5a2 2 0 0 1 2-2h4" stroke="url(#brand-ig)" stroke-width="1.5" stroke-linecap="round"/>
    <polyline points="16 17 21 12 16 7" stroke="#00D4FF" stroke-width="1.5" stroke-linecap="round" stroke-linejoin="round"/>
    <line x1="21" y1="12" x2="9" y2="12" stroke="#00D4FF" stroke-width="1.5" stroke-linecap="round"/>
  </symbol>

  <symbol id="icon-lock" viewBox="0 0 24 24" fill="none">
    <rect x="3" y="11" width="18" height="11" rx="2" stroke="url(#brand-ig)" stroke-width="1.5" stroke-linejoin="round"/>
    <path d="M7 11V7a5 5 0 0 1 10 0v4" stroke="url(#brand-ig)" stroke-width="1.5" stroke-linecap="round"/>
    <circle cx="12" cy="16" r="1.5" fill="#7A5CFF"/>
  </symbol>

  <symbol id="icon-unlock" viewBox="0 0 24 24" fill="none">
    <rect x="3" y="11" width="18" height="11" rx="2" stroke="url(#brand-ig)" stroke-width="1.5" stroke-linejoin="round"/>
    <path d="M7 11V7a5 5 0 0 1 9.9-1" stroke="#00D4FF" stroke-width="1.5" stroke-linecap="round"/>
    <circle cx="12" cy="16" r="1.5" fill="#00D4FF"/>
  </symbol>

  <!-- ── Status & Info ───────────────────────────────────────────── -->

  <symbol id="icon-info" viewBox="0 0 24 24" fill="none">
    <circle cx="12" cy="12" r="9" stroke="url(#brand-ig)" stroke-width="1.5"/>
    <line x1="12" y1="11" x2="12" y2="17" stroke="#00D4FF" stroke-width="1.5" stroke-linecap="round"/>
    <circle cx="12" cy="8" r="1" fill="#7A5CFF"/>
  </symbol>

  <symbol id="icon-warning" viewBox="0 0 24 24" fill="none">
    <path d="M10.29 3.86L1.82 18a2 2 0 0 0 1.71 3h16.94a2 2 0 0 0 1.71-3L13.71 3.86a2 2 0 0 0-3.42 0z"
          stroke="#FFB020" stroke-width="1.5" stroke-linejoin="round"/>
    <line x1="12" y1="9"  x2="12" y2="13" stroke="#FFB020" stroke-width="1.5" stroke-linecap="round"/>
    <circle cx="12" cy="17" r="1" fill="#FFB020"/>
  </symbol>

  <symbol id="icon-star" viewBox="0 0 24 24" fill="none">
    <polygon points="12 2 15.09 8.26 22 9.27 17 14.14 18.18 21.02 12 17.77 5.82 21.02 7 14.14 2 9.27 8.91 8.26 12 2"
             stroke="url(#brand-ig)" stroke-width="1.5" stroke-linejoin="round"/>
  </symbol>

  <symbol id="icon-tag" viewBox="0 0 24 24" fill="none">
    <path d="M20.59 13.41l-7.17 7.17a2 2 0 0 1-2.83 0L2 12V2h10l8.59 8.59a2 2 0 0 1 0 2.82z"
          stroke="url(#brand-ig)" stroke-width="1.5" stroke-linejoin="round"/>
    <circle cx="7" cy="7" r="1.5" fill="#00D4FF"/>
  </symbol>

  <symbol id="icon-calendar" viewBox="0 0 24 24" fill="none">
    <rect x="3" y="4" width="18" height="18" rx="2" stroke="url(#brand-ig)" stroke-width="1.5" stroke-linejoin="round"/>
    <line x1="16" y1="2"  x2="16" y2="6"  stroke="url(#brand-ig)" stroke-width="1.5" stroke-linecap="round"/>
    <line x1="8"  y1="2"  x2="8"  y2="6"  stroke="url(#brand-ig)" stroke-width="1.5" stroke-linecap="round"/>
    <line x1="3"  y1="10" x2="21" y2="10" stroke="url(#brand-ig)" stroke-width="1.5"/>
    <circle cx="8"  cy="15" r="1" fill="#7A5CFF"/>
    <circle cx="12" cy="15" r="1" fill="#00D4FF"/>
    <circle cx="16" cy="15" r="1" fill="#7A5CFF"/>
  </symbol>

  <symbol id="icon-clock" viewBox="0 0 24 24" fill="none">
    <circle cx="12" cy="12" r="9" stroke="url(#brand-ig)" stroke-width="1.5"/>
    <polyline points="12 7 12 12 16 14" stroke="#00D4FF" stroke-width="1.5" stroke-linecap="round" stroke-linejoin="round"/>
  </symbol>

  <symbol id="icon-link" viewBox="0 0 24 24" fill="none">
    <path d="M10 13a5 5 0 0 0 7.54.54l3-3a5 5 0 0 0-7.07-7.07l-1.72 1.71"
          stroke="url(#brand-ig)" stroke-width="1.5" stroke-linecap="round"/>
    <path d="M14 11a5 5 0 0 0-7.54-.54l-3 3a5 5 0 0 0 7.07 7.07l1.71-1.71"
          stroke="url(#brand-ig)" stroke-width="1.5" stroke-linecap="round"/>
  </symbol>

  <symbol id="icon-external-link" viewBox="0 0 24 24" fill="none">
    <path d="M18 13v6a2 2 0 0 1-2 2H5a2 2 0 0 1-2-2V8a2 2 0 0 1 2-2h6"
          stroke="url(#brand-ig)" stroke-width="1.5" stroke-linecap="round"/>
    <polyline points="15 3 21 3 21 9" stroke="#00D4FF" stroke-width="1.5" stroke-linecap="round" stroke-linejoin="round"/>
    <line x1="10" y1="14" x2="21" y2="3" stroke="#00D4FF" stroke-width="1.5" stroke-linecap="round"/>
  </symbol>

  <symbol id="icon-layers" viewBox="0 0 24 24" fill="none">
    <polygon points="12 2 2 7 12 12 22 7 12 2" stroke="url(#brand-ig)" stroke-width="1.5" stroke-linejoin="round"/>
    <polyline points="2 17 12 22 22 17"          stroke="#7A5CFF" stroke-width="1.5" stroke-linecap="round" stroke-linejoin="round"/>
    <polyline points="2 12 12 17 22 12"          stroke="#00D4FF" stroke-width="1.5" stroke-linecap="round" stroke-linejoin="round"/>
  </symbol>

  <symbol id="icon-chart" viewBox="0 0 24 24" fill="none">
    <line x1="18" y1="20" x2="18" y2="10" stroke="url(#brand-ig)" stroke-width="2" stroke-linecap="round"/>
    <line x1="12" y1="20" x2="12" y2="4"  stroke="url(#brand-ig)" stroke-width="2" stroke-linecap="round"/>
    <line x1="6"  y1="20" x2="6"  y2="14" stroke="#7A5CFF"       stroke-width="2" stroke-linecap="round"/>
    <line x1="3"  y1="20" x2="21" y2="20" stroke="url(#brand-ig)" stroke-width="1.5" stroke-linecap="round"/>
  </symbol>

  <!-- ── Navigation Controls ────────────────────────────────────── -->

  <symbol id="icon-chevron-down" viewBox="0 0 24 24" fill="none">
    <polyline points="6 9 12 15 18 9" stroke="currentColor" stroke-width="1.5" stroke-linecap="round" stroke-linejoin="round"/>
  </symbol>

  <symbol id="icon-chevron-right" viewBox="0 0 24 24" fill="none">
    <polyline points="9 6 15 12 9 18" stroke="currentColor" stroke-width="1.5" stroke-linecap="round" stroke-linejoin="round"/>
  </symbol>

  <symbol id="icon-chevron-left" viewBox="0 0 24 24" fill="none">
    <polyline points="15 6 9 12 15 18" stroke="currentColor" stroke-width="1.5" stroke-linecap="round" stroke-linejoin="round"/>
  </symbol>

  <symbol id="icon-menu" viewBox="0 0 24 24" fill="none">
    <line x1="3"  y1="7"  x2="21" y2="7"  stroke="currentColor" stroke-width="1.5" stroke-linecap="round"/>
    <line x1="3"  y1="12" x2="21" y2="12" stroke="currentColor" stroke-width="1.5" stroke-linecap="round"/>
    <line x1="3"  y1="17" x2="15" y2="17" stroke="currentColor" stroke-width="1.5" stroke-linecap="round"/>
  </symbol>

  <symbol id="icon-arrow-right" viewBox="0 0 24 24" fill="none">
    <line x1="5" y1="12" x2="19" y2="12" stroke="url(#brand-ig)" stroke-width="1.5" stroke-linecap="round"/>
    <polyline points="12 5 19 12 12 19"  stroke="url(#brand-ig)" stroke-width="1.5" stroke-linecap="round" stroke-linejoin="round"/>
  </symbol>

  <!-- ── Brand Logo Mark ────────────────────────────────────────── -->
  <symbol id="icon-logo" viewBox="0 0 40 40" fill="none">
    <polygon points="20,2 36,11 36,29 20,38 4,29 4,11" fill="rgba(0,212,255,.08)" stroke="url(#brand-ig)" stroke-width="1.5"/>
    <circle cx="20" cy="20" r="12" fill="rgba(122,92,255,.1)"/>
    <circle cx="20" cy="11" r="2.5" fill="url(#brand-ig)"/>
    <circle cx="29" cy="16" r="2"   fill="#7A5CFF" opacity=".8"/>
    <circle cx="29" cy="24" r="2"   fill="#00D4FF" opacity=".8"/>
    <circle cx="20" cy="29" r="2.5" fill="url(#brand-ig)"/>
    <circle cx="11" cy="24" r="2"   fill="#7A5CFF" opacity=".8"/>
    <circle cx="11" cy="16" r="2"   fill="#00D4FF" opacity=".8"/>
    <line x1="20" y1="13.5" x2="27" y2="17.5" stroke="url(#brand-ig)" stroke-width="1" opacity=".6"/>
    <line x1="27" y1="17.5" x2="27" y2="22.5" stroke="url(#brand-ig)" stroke-width="1" opacity=".6"/>
    <line x1="27" y1="22.5" x2="20" y2="26.5" stroke="url(#brand-ig)" stroke-width="1" opacity=".6"/>
    <line x1="20" y1="26.5" x2="13" y2="22.5" stroke="url(#brand-ig)" stroke-width="1" opacity=".6"/>
    <line x1="13" y1="22.5" x2="13" y2="17.5" stroke="url(#brand-ig)" stroke-width="1" opacity=".6"/>
    <line x1="13" y1="17.5" x2="20" y2="13.5" stroke="url(#brand-ig)" stroke-width="1" opacity=".6"/>
    <text x="20" y="24" text-anchor="middle" font-family="system-ui,sans-serif" font-size="11" font-weight="700"
          fill="url(#brand-ig)" letter-spacing="-0.5">R</text>
  </symbol>

</svg>
